<?xml version="1.0" encoding="utf-8"?>
<svg version="1.1" xmlns="http://www.w3.org/2000/svg" xmlns:xlink="http://www.w3.org/1999/xlink" x="0px"
	 y="0px" viewBox="0 0 265.28 379.92" style="enable-background:new 0 0 265.28 379.92;" xml:space="preserve" fill="#517A35">
<path class="st0" d="M93.81,17.95c0,0,10.52-16.85,22.61-16.17s20.18,2,39.05,8.08s36.72,16.18,49.53,23.93
	c12.8,7.75,25.94,13.81,26.95,26.95s-3.03,42.45,5.39,51.55s13.48,15.5,15.84,26.95s1.01,20.89-3.37,27.63s-1.68,13.48,2.02,17.86
	c3.71,4.38,5.05,6.74-0.34,10.11s-2.7,41.44-2.02,49.53c0.67,8.09-2.7,21.9,0.67,23.58c3.37,1.68,8.42-4.04,9.43,0
	c1.01,4.04-5.73,8.09-3.03,10.44c2.7,2.36,11.12-2.36,8.09,3.03s-8.42,17.52-15.16,19.2c-6.74,1.68-13.14-1.35-15.5,4.04
	c-2.36,5.39-5.39,24.26-7.41,27.63c-2.02,3.37-11.46,37.4-13.48,39.08c-2.02,1.68-0.34,5.39-13.48,4.72s-34.37,6.06-43.8,3.03
	c-9.43-3.03-32.68-15.84-37.74-20.55c-5.05-4.72-45.48-37.06-47.84-40.09c-2.36-3.03-12.13-15.84-14.49-16.51
	c-2.36-0.67-3.37-6.06-4.38,4.04c-1.01,10.11-0.34,12.47-4.72,8.76c-4.38-3.71-9.1-5.39-15.84-5.73
	c-6.74-0.34-18.19-10.78-16.17-12.13c2.02-1.35,13.48,1.35,11.46-1.68s-9.57-2.36-11.69-6.4c-2.12-4.04-2.8-12.47,1.58-9.77
	s-5.14-9.77-3.24-11.12s8.97,7.08,7.62-0.34c-1.35-7.41-9.35-16.51-7.88-20.55s7.2-2.02,3.5-11.46
	c-3.71-9.43-15.5-33.36-15.16-39.76s-5.73-25.27,10.78-63.34s27.29-73.45,32.34-79.85s10.78-12.47,14.15-15.16
	c3.37-2.7,7.08-6.4,7.75-9.77c0.67-3.37-2.7-5.73,3.37-7.08s13.14-1.01,14.82-4.38S86.06,5.14,88.42,3.8
	c2.36-1.35,7.41-6.44,7.41-2.04S88.75,20.31,93.81,17.95z" />
</svg>
